<?xml version="1.0" encoding="UTF-8" standalone="no"?>
<svg width="69px" height="50px" viewBox="0 0 69 50" version="1.1" xmlns="http://www.w3.org/2000/svg" xmlns:xlink="http://www.w3.org/1999/xlink" xmlns:sketch="http://www.bohemiancoding.com/sketch/ns">
    <!-- Generator: Sketch 3.4.1 (15681) - http://www.bohemiancoding.com/sketch -->
    <title>Page 1</title>
    <desc>Created with Sketch.</desc>
    <defs></defs>
    <g id="Page-1" stroke="none" stroke-width="1" fill="none" fill-rule="evenodd" sketch:type="MSPage">
        <g id="Artboard-2" sketch:type="MSArtboardGroup" transform="translate(-223.000000, -392.000000)" fill="#000000">
            <path d="M274.2205,408.258622 C273.9945,408.633622 273.9945,409.082622 274.0725,409.531622 L275.3455,413.805622 C275.5725,414.629622 275.1195,415.531622 274.2955,415.754622 C274.1465,415.828622 273.9945,415.828622 273.8455,415.828622 C273.1705,415.828622 272.5725,415.379622 272.3455,414.703622 L271.2205,410.953622 L271.2205,410.953622 L266.8695,396.402622 C266.7205,395.953622 266.4205,395.652622 266.0455,395.426622 C265.6705,395.199622 265.2205,395.199622 264.7715,395.277622 C264.3225,395.426622 264.0215,395.727622 263.7955,396.102622 C263.5685,396.477622 263.5685,396.926622 263.6465,397.375622 L264.2485,399.398622 L264.2485,399.398622 L269.4245,416.723622 C269.6505,417.547622 269.1975,418.449622 268.3735,418.672622 C267.5495,418.898622 266.6465,418.445622 266.4245,417.621622 L262.8225,405.621622 L262.8225,405.621622 L261.2485,400.297622 C261.0995,399.848622 260.7995,399.547622 260.4245,399.320622 C260.0495,399.094622 259.5995,399.094622 259.1505,399.172622 C258.7015,399.320622 258.4005,399.621622 258.1745,399.996622 C257.9475,400.371622 257.9475,400.820622 258.0255,401.270622 L265.4515,426.246622 C265.6775,426.922622 265.3775,427.672622 264.7755,428.047622 C264.1745,428.422622 263.3495,428.348622 262.9005,427.820622 L256.0765,421.371622 C255.7015,420.996622 255.3265,420.848622 254.9515,420.922622 C254.5765,420.922622 254.2015,421.148622 253.9745,421.371622 C253.5995,421.820622 253.9005,423.020622 254.5765,424.070622 C254.8775,424.520622 262.5995,435.020622 268.5255,438.246622 C269.2755,438.695622 269.5765,439.598622 269.1275,440.348622 C268.8265,440.871622 268.3025,441.172622 267.7755,441.172622 C267.5495,441.172622 267.2525,441.098622 267.0255,440.945622 C260.3495,437.344622 252.3265,426.320622 251.9515,425.797622 L251.9515,425.797622 C250.3025,423.398622 250.1505,420.848622 251.5025,419.195622 C252.3265,418.219622 253.5255,417.695622 254.7285,417.621622 C256.0025,417.547622 257.2055,418.070622 258.1775,418.973622 L260.7285,421.371622 L254.9555,402.098622 C254.5805,400.898622 254.7285,399.547622 255.3305,398.422622 C255.9315,397.297622 256.9785,396.473622 258.1815,396.098622 C258.9315,395.871622 259.6815,395.871622 260.4315,395.949622 C260.5065,395.426622 260.6585,394.973622 260.9555,394.523622 C261.5565,393.398622 262.6035,392.574622 263.8065,392.199622 C266.3575,391.449622 269.0565,392.875622 269.8065,395.426622 L272.6585,405.102622 C273.1075,404.727622 273.6345,404.500622 274.1585,404.352622 C276.1815,403.750622 278.3575,404.578622 279.4825,406.227622 C280.0065,405.777622 280.5335,405.477622 281.2095,405.328622 C283.4595,404.652622 285.7095,405.777622 287.0605,408.254622 C287.1345,408.328622 287.1345,408.402622 287.1345,408.480622 C287.3615,409.082622 292.7605,423.930622 291.9355,432.031622 C291.8615,432.855622 291.1855,433.457622 290.3615,433.457622 L290.2135,433.457622 C289.3145,433.383622 288.7135,432.633622 288.7875,431.730622 C289.4635,424.680622 284.7365,411.105622 284.2135,409.680622 C283.8385,409.078622 283.0885,408.031622 282.0375,408.328622 C281.5885,408.477622 281.2875,408.777622 281.0605,409.152622 C280.8345,409.527622 280.8345,409.977622 280.9125,410.426622 L281.8105,413.500622 C282.0375,414.324622 281.5845,415.227622 280.7605,415.449622 C279.9355,415.676622 279.0335,415.223622 278.8105,414.398622 L277.9125,411.324622 C277.8385,411.176622 277.8385,411.023622 277.7635,410.801622 C277.6895,410.727622 277.6895,410.652622 277.6895,410.500622 L277.0885,408.477622 C276.7875,407.578622 275.8885,407.051622 274.9865,407.352622 C274.7485,407.582622 274.4475,407.883622 274.2205,408.258622 L274.2205,408.258622 Z M238.0725,407.957622 C238.9705,407.957622 239.6465,407.281622 239.6465,406.383622 L239.6465,401.734622 L241.1465,403.234622 C241.4475,403.535622 241.8225,403.684622 242.2715,403.684622 C242.6465,403.684622 243.0955,403.535622 243.3965,403.234622 C243.9985,402.633622 243.9985,401.660622 243.3965,400.984622 L239.2715,396.859622 C238.6705,396.258622 237.6235,396.258622 237.0215,396.859622 L233.0455,400.836622 C232.4435,401.437622 232.4435,402.410622 233.0455,403.086622 C233.6465,403.687622 234.6935,403.687622 235.2955,403.086622 L236.5685,401.812622 L236.5685,406.461622 C236.4985,407.281622 237.1745,407.957622 238.0725,407.957622 L238.0725,407.957622 Z M237.0215,426.258622 C237.3225,426.559622 237.6975,426.707622 238.1465,426.707622 C238.5955,426.707622 238.9705,426.559622 239.2715,426.258622 L243.2485,422.281622 C243.8495,421.680622 243.8495,420.707622 243.2485,420.031622 C242.6465,419.430622 241.5995,419.430622 240.9985,420.031622 L239.5725,421.457622 L239.5725,416.281622 C239.5725,415.383622 238.8965,414.707622 237.9985,414.707622 C237.0995,414.707622 236.4245,415.383622 236.4245,416.281622 L236.4245,421.305622 L234.9985,419.879622 C234.3965,419.277622 233.3495,419.277622 232.7485,419.879622 C232.1465,420.480622 232.1465,421.527622 232.7485,422.129622 L237.0215,426.258622 Z M234.5495,411.559622 C234.5495,410.660622 233.8735,409.984622 232.9745,409.984622 L228.3265,409.984622 L229.8265,408.484622 C230.4275,407.883622 230.4275,406.910622 229.8265,406.234622 C229.2245,405.633622 228.2525,405.633622 227.5765,406.234622 L223.4515,410.359622 C222.8495,410.961622 222.8495,412.008622 223.4515,412.609622 L227.4275,416.586622 C227.7285,416.887622 228.1035,417.035622 228.5525,417.035622 C229.0025,417.035622 229.3775,416.887622 229.6775,416.586622 C230.2795,415.984622 230.2795,414.937622 229.6775,414.336622 L228.4045,413.062622 L233.0525,413.062622 C233.7995,413.133622 234.5495,412.457622 234.5495,411.559622 L234.5495,411.559622 Z M252.8455,410.434622 L248.8695,406.457622 C248.2675,405.855622 247.2205,405.855622 246.6195,406.457622 C246.0175,407.059622 246.0175,408.105622 246.6195,408.707622 L248.0455,410.133622 L242.8695,410.133622 C241.9705,410.133622 241.2955,410.809622 241.2955,411.707622 C241.2955,412.605622 241.9705,413.281622 242.8695,413.281622 L247.8925,413.281622 L246.4675,414.707622 C245.8655,415.309622 245.8655,416.281622 246.4675,416.957622 C246.7675,417.258622 247.1425,417.406622 247.5925,417.406622 C248.0415,417.406622 248.4165,417.258622 248.7175,416.957622 L252.8425,412.832622 C253.4475,412.008622 253.4475,411.031622 252.8455,410.434622 L252.8455,410.434622 Z" id="Page-1" sketch:type="MSShapeGroup"></path>
        </g>
    </g>
</svg>