<?xml version="1.0" encoding="UTF-8" standalone="no"?>
<svg width="57px" height="33px" viewBox="0 0 57 33" version="1.1" xmlns="http://www.w3.org/2000/svg" xmlns:xlink="http://www.w3.org/1999/xlink" xmlns:sketch="http://www.bohemiancoding.com/sketch/ns">
    <!-- Generator: Sketch 3.4.1 (15681) - http://www.bohemiancoding.com/sketch -->
    <title></title>
    <desc>Created with Sketch.</desc>
    <defs></defs>
    <g id="Page-1" stroke="none" stroke-width="1" fill="none" fill-rule="evenodd" sketch:type="MSPage">
        <g id="Desktop-HD-Copy" sketch:type="MSArtboardGroup" transform="translate(-224.000000, -727.000000)" fill="#FFFFFF">
            <path d="M252.5,727 C261.830404,727 271.330309,732.50932 281,743.528125 C278.70981,745.834387 277.246655,747.286455 276.610491,747.884375 C275.974327,748.482295 274.426352,749.80624 271.966518,751.85625 C269.506684,753.90626 267.5134,755.315621 265.986607,756.084375 C264.459814,756.853129 262.445325,757.664579 259.94308,758.51875 C257.440836,759.372921 254.959834,759.8 252.5,759.8 C249.446413,759.8 246.647334,759.415629 244.102679,758.646875 C241.558023,757.878121 239.013406,756.554176 236.46875,754.675 C233.924094,752.795824 231.930811,751.194277 230.488839,749.870312 C229.046868,748.546348 226.883943,746.389598 224,743.4 C229.51342,737.847889 234.411809,733.726576 238.695312,731.035938 C242.978816,728.345299 247.580333,727 252.5,727 L252.5,727 Z M252.5,755.059375 C255.638409,755.059375 258.331462,753.906262 260.579241,751.6 C262.82702,749.293738 263.950893,746.560432 263.950893,743.4 C263.950893,740.239568 262.82702,737.506262 260.579241,735.2 C258.331462,732.893738 255.638409,731.740625 252.5,731.740625 C249.361591,731.740625 246.668538,732.893738 244.420759,735.2 C242.17298,737.506262 241.049107,740.239568 241.049107,743.4 C241.049107,746.560432 242.17298,749.293738 244.420759,751.6 C246.668538,753.906262 249.361591,755.059375 252.5,755.059375 L252.5,755.059375 Z M252.5,739.3 C252.5,740.495839 252.881693,741.478121 253.645089,742.246875 C254.408486,743.015629 255.383923,743.4 256.571429,743.4 C257.419647,743.4 258.267853,743.101045 259.116071,742.503125 L259.116071,743.4 C259.116071,745.279176 258.479917,746.880723 257.207589,748.204687 C255.935261,749.528652 254.366081,750.190625 252.5,750.190625 C250.633919,750.190625 249.064739,749.528652 247.792411,748.204687 C246.520083,746.880723 245.883929,745.279176 245.883929,743.4 C245.883929,741.520824 246.520083,739.919277 247.792411,738.595312 C249.064739,737.271348 250.633919,736.609375 252.5,736.609375 L253.517857,736.609375 C252.839282,737.463546 252.5,738.360412 252.5,739.3 L252.5,739.3 Z" id="" sketch:type="MSShapeGroup"></path>
        </g>
    </g>
</svg>