<?xml version="1.0" encoding="UTF-8" standalone="no"?>
<svg width="116px" height="25px" viewBox="0 0 116 25" version="1.1" xmlns="http://www.w3.org/2000/svg" xmlns:xlink="http://www.w3.org/1999/xlink" xmlns:sketch="http://www.bohemiancoding.com/sketch/ns">
    <!-- Generator: Sketch 3.4.1 (15681) - http://www.bohemiancoding.com/sketch -->
    <title>logo</title>
    <desc>Created with Sketch.</desc>
    <defs></defs>
    <g id="Page-1" stroke="none" stroke-width="1" fill="none" fill-rule="evenodd" sketch:type="MSPage">
        <g id="Desktop-HD-Copy" sketch:type="MSArtboardGroup" transform="translate(-141.000000, -69.000000)">
            <g id="logo" sketch:type="MSLayerGroup" transform="translate(141.000000, 69.000000)">
                <text id="/whislist" sketch:type="MSTextLayer" font-family="Proxima Nova" font-size="20" font-weight="bold" fill="#000000">
                    <tspan x="41" y="21">/whislist</tspan>
                </text>
                <path d="M15.9619783,14.640684 C17.8558108,14.640684 19.680599,15.4350236 20.968402,16.8200865 L23.5568552,19.6040487 C24.0786286,20.1651336 24.6623527,20.2830582 25.0601458,20.2830582 C25.94653,20.2830582 27.1949241,19.6306997 27.1949241,18.1803852 L27.1949241,6.85491352 C27.1949241,5.70043239 26.2532887,4.76128145 25.0959291,4.76128145 L6.82802759,4.76128145 C5.67066798,4.76128145 4.72903251,5.70043239 4.72903251,6.85491352 L4.72903251,18.1803852 C4.72903251,18.9443003 5.07535764,19.4260613 5.36595862,19.6957154 C5.7680867,20.0689858 6.31397833,20.2830582 6.86349557,20.2830582 C7.26144631,20.2829796 7.8454069,20.1651336 8.36710148,19.6040487 L10.9555547,16.8200865 C12.2433576,15.4350236 14.0681458,14.640684 15.9619783,14.640684 L15.9619783,14.640684 Z M6.86333793,25.0000393 C5.13171232,25.0000393 3.41190936,24.3253538 2.14444138,23.1490173 C0.761584236,21.8655267 -3.15270936e-05,20.1009827 -3.15270936e-05,18.1803852 L-3.15270936e-05,6.85491352 C-3.15270936e-05,3.09948899 3.06306207,0.0443003145 6.82802759,0.0443003145 L25.0959291,0.0443003145 C28.8608946,0.0443003145 31.9239882,3.09948899 31.9239882,6.85491352 L31.9239882,18.1803852 C31.9239882,20.1009041 31.1622936,21.8652909 29.7794365,23.1488601 C28.5118108,24.3252752 26.7916138,25.0000393 25.0601458,25.0000393 C23.166865,25.0000393 21.4016631,24.2228381 20.0895054,22.8115959 L17.5009734,20.027555 C17.0993182,19.5955582 16.5527172,19.3576651 15.9619783,19.3576651 C15.3712394,19.3576651 14.8246384,19.5955582 14.4229833,20.027555 L11.8344512,22.8115959 C10.5226089,24.2225236 8.75748571,24.9997248 6.86412611,25.0000393 L6.86333793,25.0000393 Z" id="Fill-1" fill="" sketch:type="MSShapeGroup"></path>
            </g>
        </g>
    </g>
</svg>