<?xml version="1.0" encoding="UTF-8" standalone="no"?>
<svg width="118px" height="137px" viewBox="0 0 118 137" version="1.1" xmlns="http://www.w3.org/2000/svg" xmlns:xlink="http://www.w3.org/1999/xlink" xmlns:sketch="http://www.bohemiancoding.com/sketch/ns">
    <!-- Generator: Sketch 3.4.1 (15681) - http://www.bohemiancoding.com/sketch -->
    <title>Page 1 + Page 1</title>
    <desc>Created with Sketch.</desc>
    <defs></defs>
    <g id="Page-1" stroke="none" stroke-width="1" fill="none" fill-rule="evenodd" sketch:type="MSPage">
        <g id="Artboard-2-Copy-2" sketch:type="MSArtboardGroup" transform="translate(-201.000000, -318.000000)" fill="#000000">
            <g id="Page-1-+-Page-1" sketch:type="MSLayerGroup" transform="translate(201.000000, 314.000000)">
                <g id="Page-1" transform="translate(0.000000, 59.000000)" sketch:type="MSShapeGroup">
                    <path d="M105.675354,7.31509333 L105.675354,26.8990933 C105.675354,30.0724267 104.874769,33.3454933 102.349569,36.29216 C99.7263385,39.3458133 88.3438769,46.4359467 84.2737846,48.8368 C81.4799077,50.4869333 79.5084,46.9672533 81.5289231,45.4222933 C83.6148,43.8356267 94.6051385,37.0229333 98.0380308,34.67104 C104.3356,30.3498667 98.2794769,20.8715733 90.6131077,25.3486933 C87.2945846,27.28896 83.7491385,29.2382933 76.5148308,33.45248 C69.5510154,37.5034667 64.9145231,42.6823467 63.5021538,56.36032 C62.8014154,63.16576 66.9495692,81.75968 66.9495692,81.75968 L90.3516923,81.75968 C90.3516923,65.4977067 109.476769,52.0101333 114.000708,43.8011733 C116.865385,38.5950933 117.270215,36.4136533 117.270215,31.8730667 L117.270215,7.30784 C117.270215,-1.62464 105.675354,-1.42698667 105.675354,7.31509333 L105.675354,7.31509333 Z" id="Fill-1"></path>
                    <path d="M41.4906154,33.45248 C34.2581231,29.2437333 30.7126769,27.28896 27.3941538,25.3486933 C19.7277846,20.86432 13.6716615,30.3426133 19.9619692,34.6637867 C23.3948615,37.0229333 34.3852,43.8283733 36.4710769,45.41504 C38.4988615,46.96 36.5200923,50.4724267 33.7334769,48.8295467 C29.6633846,46.4286933 18.2809231,39.33856 15.6576923,36.2849067 C13.1324923,33.3454933 12.3319077,30.0669867 12.3319077,26.8936533 L12.3319077,7.30784 C12.3319077,-1.43242667 0.737046154,-1.62464 0.737046154,7.30784 L0.737046154,31.8658133 C0.737046154,36.4064 1.14187692,38.58784 4.00655385,43.79392 C8.53049231,52.0101333 27.6555692,65.4977067 27.6555692,81.7524267 L51.0576923,81.7524267 C51.0576923,81.7524267 55.1985846,63.16032 54.5032923,56.3530667 C53.0927385,42.6823467 48.4544308,37.5034667 41.4906154,33.45248 L41.4906154,33.45248 Z" id="Fill-2"></path>
                </g>
                <g id="Page-1" transform="translate(59.000000, 38.000000) rotate(-16.000000) translate(-59.000000, -38.000000) translate(31.000000, 7.000000)" sketch:type="MSShapeGroup">
                    <path d="M50.75,40.379 C50.75,39.203 49.797,38.25 48.621,38.25 L25.129,38.25 C23.953,38.25 23,39.203 23,40.379 L23,59.371 C23,60.547 23.953,61.5 25.129,61.5 L48.621,61.5 C49.797,61.5 50.75,60.547 50.75,59.371 L50.75,40.379 Z" id="Fill-1"></path>
                    <path d="M55.25,23.129 C55.25,21.953 54.297,21 53.121,21 L25.129,21 C23.953,21 23,21.953 23,23.129 L23,32.371 C23,33.547 23.953,34.5 25.129,34.5 L53.121,34.5 C54.297,34.5 55.25,33.547 55.25,32.371 L55.25,23.129 Z" id="Fill-2"></path>
                    <path d="M17.75,59.371 C17.75,60.547 16.797,61.5 15.621,61.5 L7.129,61.5 C5.953,61.5 5,60.547 5,59.371 L5,40.379 C5,39.203 5.953,38.25 7.129,38.25 L15.621,38.25 C16.797,38.25 17.75,39.203 17.75,40.379 L17.75,59.371 Z" id="Fill-3"></path>
                    <path d="M17.75,32.371 C17.75,33.547 16.797,34.5 15.621,34.5 L2.629,34.5 C1.453,34.5 0.5,33.547 0.5,32.371 L0.5,23.129 C0.5,21.953 1.453,21 2.629,21 L15.621,21 C16.797,21 17.75,21.953 17.75,23.129 L17.75,32.371 Z" id="Fill-4"></path>
                    <path d="M48.664,3.832 C47.422,1.684 44.84,0.398 41.762,0.398 C34.746,0.398 29.777,6.797 27.336,10.836 C24.891,6.801 19.922,0.438 12.922,0.438 C8.484,0.438 5.262,3.109 5.262,6.73 C5.262,13.156 12.52,17.348 27.105,17.348 C41.691,17.348 49.422,11.957 49.422,6.781 C49.422,5.758 49.195,4.75 48.664,3.832 L48.664,3.832 Z M12.848,10.23 C10.395,8.969 9.523,7.555 9.523,6.652 C9.523,5.496 10.953,4.656 12.926,4.656 C17.672,4.656 21.43,9.375 23.473,12.656 C18,12.309 14.719,11.195 12.848,10.23 L12.848,10.23 Z M44.832,7.73 C43.598,9.867 39.387,12.137 31.234,12.66 C33.293,9.375 37.066,4.66 41.758,4.66 C43.574,4.66 44.609,5.332 44.973,5.965 C45.266,6.465 45.219,7.059 44.832,7.73 L44.832,7.73 Z" id="Fill-5"></path>
                </g>
            </g>
        </g>
    </g>
</svg>